<svg xmlns="http://www.w3.org/2000/svg" width="57.625" height="58.665" viewBox="0 0 57.625 58.665">
  <g id="Group_20" data-name="Group 20" transform="translate(-5.874 -5.335)">
    <g id="Group_19" data-name="Group 19">
      <g id="Group_17" data-name="Group 17">
        <g id="Group_16" data-name="Group 16">
          <path id="overview_FILL0_wght300_GRAD0_opsz48" d="M11.516,59.945A4.519,4.519,0,0,1,7,55.429V11.516A4.519,4.519,0,0,1,11.516,7H55.429a4.519,4.519,0,0,1,4.516,4.516V34.64a14.269,14.269,0,0,0-1.752-.662q-.9-.273-1.752-.506V11.516A1.068,1.068,0,0,0,55.429,10.5H11.516A1.068,1.068,0,0,0,10.5,11.516V55.429a1.068,1.068,0,0,0,1.012,1.012H33.55q.234.934.467,1.83a8.566,8.566,0,0,0,.623,1.674ZM10.5,52.937v0Zm8.175-6.774a1.614,1.614,0,0,0,.506,1.246,1.82,1.82,0,0,0,1.285.467H33.862q.311-.856.623-1.752a11.641,11.641,0,0,1,.779-1.752H20.47a1.731,1.731,0,0,0-1.791,1.791Zm0-12.691a1.731,1.731,0,0,0,1.791,1.791H44.139q.934-.389,1.713-.662t1.791-.584v-.623a1.592,1.592,0,0,0-.545-1.207,1.779,1.779,0,0,0-1.246-.506H20.47a1.731,1.731,0,0,0-1.791,1.791Zm0-12.691a1.731,1.731,0,0,0,1.791,1.791H46.475a1.731,1.731,0,0,0,1.791-1.791,1.614,1.614,0,0,0-.506-1.246,1.82,1.82,0,0,0-1.285-.467H20.47a1.741,1.741,0,0,0-1.285.506,1.648,1.648,0,0,0-.506,1.207Z" transform="translate(-1.126 -1.665)" fill="#ee2a2a"/>
        </g>
      </g>
      <path id="cancel_FILL1_wght300_GRAD0_opsz48" d="M12.247,23.611a.68.68,0,0,0,.52.274.781.781,0,0,0,.554-.274l4.429-4.516,4.462,4.55a.675.675,0,0,0,.537.222.685.685,0,0,0,.5-.257.7.7,0,0,0,.268-.53.809.809,0,0,0-.268-.564L18.823,18l4.462-4.55a.716.716,0,0,0-.034-1.061.68.68,0,0,0-.52-.274.781.781,0,0,0-.554.274L17.75,16.905l-4.462-4.55a.675.675,0,0,0-.537-.222.685.685,0,0,0-.5.257.7.7,0,0,0-.268.53.809.809,0,0,0,.268.564L16.676,18l-4.462,4.55a.716.716,0,0,0,.034,1.061ZM17.75,31a12.677,12.677,0,0,1-5.016-.992,12.45,12.45,0,0,1-4.06-2.754,12.729,12.729,0,0,1-2.7-4.139A13.372,13.372,0,0,1,5,18a13.244,13.244,0,0,1,.973-5.1,12.641,12.641,0,0,1,6.761-6.893A12.491,12.491,0,0,1,17.75,5a12.372,12.372,0,0,1,5,1.009A12.726,12.726,0,0,1,26.792,8.78,13.035,13.035,0,0,1,30.5,18a13.174,13.174,0,0,1-.99,5.114,12.956,12.956,0,0,1-2.718,4.139A12.506,12.506,0,0,1,17.75,31Z" transform="translate(33 33)" fill="#ee2a2a"/>
    </g>
  </g>
</svg>
