<svg xmlns="http://www.w3.org/2000/svg" width="61.231" height="61.799" viewBox="0 0 61.231 61.799">
  <g id="Group_17" data-name="Group 17" transform="translate(-5.874 -5.335)">
    <g id="Group_16" data-name="Group 16" transform="translate(5.874 5.335)">
      <path id="overview_FILL0_wght300_GRAD0_opsz48" d="M11.781,63.079A4.785,4.785,0,0,1,7,58.3V11.783A4.785,4.785,0,0,1,11.781,7H58.269a4.785,4.785,0,0,1,4.781,4.783V36.277a15.1,15.1,0,0,0-1.855-.7q-.948-.289-1.855-.536V11.783a1.131,1.131,0,0,0-1.072-1.072H11.781a1.131,1.131,0,0,0-1.072,1.072V58.3a1.131,1.131,0,0,0,1.072,1.072H35.108q.247.99.495,1.938a9.076,9.076,0,0,0,.659,1.773Zm-1.072-7.422v0Zm8.655-7.175A1.71,1.71,0,0,0,19.9,49.8a1.926,1.926,0,0,0,1.36.495H35.437q.33-.907.659-1.856a12.334,12.334,0,0,1,.824-1.856H21.26a1.834,1.834,0,0,0-1.9,1.9Zm0-13.442a1.834,1.834,0,0,0,1.9,1.9H46.318q.989-.412,1.813-.7t1.9-.619v-.66a1.686,1.686,0,0,0-.577-1.278,1.883,1.883,0,0,0-1.319-.536H21.26a1.834,1.834,0,0,0-1.9,1.9Zm0-13.442a1.834,1.834,0,0,0,1.9,1.9H48.79a1.834,1.834,0,0,0,1.9-1.9,1.71,1.71,0,0,0-.536-1.32,1.926,1.926,0,0,0-1.36-.495H21.26a1.842,1.842,0,0,0-1.36.536,1.746,1.746,0,0,0-.536,1.278Z" transform="translate(-7 -7)" fill="#ee2a2a"/>
      <path id="check_circle_FILL1_wght300_GRAD0_opsz48" d="M15.982,21.421l-3.489-3.489a.685.685,0,0,0-.547-.239.792.792,0,0,0-.582.239.851.851,0,0,0-.274.616.792.792,0,0,0,.239.582L15.3,23.063a.914.914,0,0,0,1.368,0l7.971-7.937a.792.792,0,0,0,.239-.582.745.745,0,0,0-.274-.582.792.792,0,0,0-.582-.239.911.911,0,0,0-.616.239ZM18,31a13.147,13.147,0,0,1-5.114-.992,12.616,12.616,0,0,1-6.893-6.893A13.147,13.147,0,0,1,5,18a13.059,13.059,0,0,1,.992-5.08A12.709,12.709,0,0,1,8.746,8.78,12.986,12.986,0,0,1,18,5,12.907,12.907,0,0,1,31,18a12.986,12.986,0,0,1-3.78,9.254A12.756,12.756,0,0,1,23.1,30.008,13.021,13.021,0,0,1,18,31Z" transform="translate(30.231 30.799)" fill="#ee2a2a"/>
    </g>
  </g>
</svg>
