<svg xmlns="http://www.w3.org/2000/svg" width="58.126" height="58.665" viewBox="0 0 58.126 58.665">
  <g id="Group_20" data-name="Group 20" transform="translate(-5.874 -5.335)">
    <g id="Group_19" data-name="Group 19">
      <g id="Group_17" data-name="Group 17">
        <g id="Group_16" data-name="Group 16">
          <path id="overview_FILL0_wght300_GRAD0_opsz48" d="M11.516,59.945A4.519,4.519,0,0,1,7,55.429V11.516A4.519,4.519,0,0,1,11.516,7H55.429a4.519,4.519,0,0,1,4.516,4.516V34.64a14.269,14.269,0,0,0-1.752-.662q-.9-.273-1.752-.506V11.516A1.068,1.068,0,0,0,55.429,10.5H11.516A1.068,1.068,0,0,0,10.5,11.516V55.429a1.068,1.068,0,0,0,1.012,1.012H33.55q.234.934.467,1.83a8.566,8.566,0,0,0,.623,1.674ZM10.5,52.937v0Zm8.175-6.774a1.614,1.614,0,0,0,.506,1.246,1.82,1.82,0,0,0,1.285.467H33.862q.311-.856.623-1.752a11.641,11.641,0,0,1,.779-1.752H20.47a1.731,1.731,0,0,0-1.791,1.791Zm0-12.691a1.731,1.731,0,0,0,1.791,1.791H44.139q.934-.389,1.713-.662t1.791-.584v-.623a1.592,1.592,0,0,0-.545-1.207,1.779,1.779,0,0,0-1.246-.506H20.47a1.731,1.731,0,0,0-1.791,1.791Zm0-12.691a1.731,1.731,0,0,0,1.791,1.791H46.475a1.731,1.731,0,0,0,1.791-1.791,1.614,1.614,0,0,0-.506-1.246,1.82,1.82,0,0,0-1.285-.467H20.47a1.741,1.741,0,0,0-1.285.506,1.648,1.648,0,0,0-.506,1.207Z" transform="translate(-1.126 -1.665)" fill="#ee2a2a"/>
        </g>
      </g>
      <g id="Group_18" data-name="Group 18" transform="translate(2 -26)">
        <g id="Ellipse_1" data-name="Ellipse 1" transform="translate(36 64)" fill="#ee2a2a" stroke="#ee2a2a" stroke-width="1">
          <circle cx="13" cy="13" r="13" stroke="none"/>
          <circle cx="13" cy="13" r="12.5" fill="none"/>
        </g>
        <path id="military_tech_FILL1_wght300_GRAD0_opsz48" d="M16.923,18.731a.277.277,0,0,1-.34,0,.258.258,0,0,1-.107-.311l.466-1.514-1.2-.874a.3.3,0,0,1-.1-.33.256.256,0,0,1,.272-.194h1.475l.5-1.883-2.659-1.553a1.757,1.757,0,0,1-.611-.6,1.544,1.544,0,0,1-.223-.815V5.706a1.053,1.053,0,0,1,.33-.786,1.078,1.078,0,0,1,.776-.32h5.241a1.078,1.078,0,0,1,.776.32,1.053,1.053,0,0,1,.33.786v4.95a1.51,1.51,0,0,1-.223.8,1.757,1.757,0,0,1-.611.6l-2.679,1.572.524,1.883H20.32a.256.256,0,0,1,.272.194.3.3,0,0,1-.1.33l-1.2.874.466,1.514a.262.262,0,0,1-.1.311.291.291,0,0,1-.349,0l-1.184-.893Zm1.262-6,.446-.252V5.92a.447.447,0,1,0-.893,0v6.561Z" transform="translate(30.6 65.4)" fill="#fff"/>
      </g>
    </g>
  </g>
</svg>
