<svg xmlns="http://www.w3.org/2000/svg" width="58.126" height="58.665" viewBox="0 0 58.126 58.665">
  <g id="Group_19" data-name="Group 19" transform="translate(-5.874 -5.335)">
    <g id="Group_17" data-name="Group 17">
      <g id="Group_16" data-name="Group 16">
        <path id="overview_FILL0_wght300_GRAD0_opsz48" d="M11.516,59.945A4.519,4.519,0,0,1,7,55.429V11.516A4.519,4.519,0,0,1,11.516,7H55.429a4.519,4.519,0,0,1,4.516,4.516V34.64a14.269,14.269,0,0,0-1.752-.662q-.9-.273-1.752-.506V11.516A1.068,1.068,0,0,0,55.429,10.5H11.516A1.068,1.068,0,0,0,10.5,11.516V55.429a1.068,1.068,0,0,0,1.012,1.012H33.55q.234.934.467,1.83a8.566,8.566,0,0,0,.623,1.674ZM10.5,52.937v0Zm8.175-6.774a1.614,1.614,0,0,0,.506,1.246,1.82,1.82,0,0,0,1.285.467H33.862q.311-.856.623-1.752a11.641,11.641,0,0,1,.779-1.752H20.47a1.731,1.731,0,0,0-1.791,1.791Zm0-12.691a1.731,1.731,0,0,0,1.791,1.791H44.139q.934-.389,1.713-.662t1.791-.584v-.623a1.592,1.592,0,0,0-.545-1.207,1.779,1.779,0,0,0-1.246-.506H20.47a1.731,1.731,0,0,0-1.791,1.791Zm0-12.691a1.731,1.731,0,0,0,1.791,1.791H46.475a1.731,1.731,0,0,0,1.791-1.791,1.614,1.614,0,0,0-.506-1.246,1.82,1.82,0,0,0-1.285-.467H20.47a1.741,1.741,0,0,0-1.285.506,1.648,1.648,0,0,0-.506,1.207Z" transform="translate(-1.126 -1.665)" fill="#ee2a2a"/>
      </g>
    </g>
    <g id="Group_18" data-name="Group 18" transform="translate(2 -26)">
      <g id="Ellipse_1" data-name="Ellipse 1" transform="translate(36 64)" fill="#ee2a2a" stroke="#ee2a2a" stroke-width="1">
        <circle cx="13" cy="13" r="13" stroke="none"/>
        <circle cx="13" cy="13" r="12.5" fill="none"/>
      </g>
      <path id="search_FILL1_wght300_GRAD0_opsz48" d="M20.153,20.772l-5.086-5.065a4.638,4.638,0,0,1-1.455.848,4.971,4.971,0,0,1-1.727.3A5.038,5.038,0,0,1,6.8,11.794,5.038,5.038,0,0,1,11.865,6.75a5.038,5.038,0,0,1,5.065,5.044,5,5,0,0,1-.3,1.716,4.914,4.914,0,0,1-.869,1.507L20.864,20.1a.461.461,0,0,1,.146.335.436.436,0,0,1-.167.335.456.456,0,0,1-.356.167.4.4,0,0,1-.335-.167Zm-8.267-4.855a3.917,3.917,0,0,0,2.888-1.2,3.993,3.993,0,0,0,1.193-2.92,4.073,4.073,0,0,0-4.081-4.1,4.074,4.074,0,0,0-4.123,4.1,4.091,4.091,0,0,0,4.123,4.123Z" transform="translate(35.2 63.25)" fill="#fff" stroke="#fff" stroke-width="0.5"/>
    </g>
  </g>
</svg>
